<svg version="1.0" xmlns="http://www.w3.org/2000/svg" width="256" height="256" viewBox="0 0 256 256">
  <style>
    @media (prefers-color-scheme:dark){path{fill:#58c}}
  </style>
  <path d="M1263 2518c-21-26-244-480-239-486 4-3 33 22 66 56l60 62v-322c0-178 3-360 7-405 4-56 2-83-5-83-11 0-43 18-312 175-249 145-233 131-166 145 31 6 56 15 56 19 0 9-408 36-416 28-4-3 46-85 111-182 64-97 118-175 120-173s-3 28-11 57c-9 29-14 54-12 57 5 5 558-309 558-317S529 828 523 833c-2 3 3 29 11 58 9 29 14 54 12 56-4 4-236-343-236-354 0-3 55-3 123 1 209 11 298 19 292 25-4 3-29 13-56 21l-50 15 257 150c141 83 262 151 269 153 10 2 11-98 7-468l-5-470h24c97-2 188-2 212-1l27 1v515l133 75c72 41 152 87 176 102 25 16 51 28 59 28 7 0 45-19 84-42l71-42-29-13c-16-7-37-12-46-13-23 0-34-20-11-20 10 0 102-5 205-12 103-6 190-9 194-6 3 4-47 86-111 183-65 96-119 174-121 172s3-27 12-56c8-29 14-56 12-60-4-11-551 301-551 314 0 12 547 326 551 316 1-4-4-29-12-56-9-27-14-51-12-53s57 76 122 172c64 97 114 179 111 183-8 8-417-18-417-27 0-4 25-13 55-20 31-7 52-17 48-21s-62-39-128-77-182-106-259-151c-76-45-139-81-140-79s0 187 2 411l4 408 60-61c33-34 62-60 64-57 7 7-239 490-252 494-6 2-16-2-21-9m264-1625c84-48 113-69 102-75-176-104-215-125-221-121-9 5-11 263-3 263 3 0 58-30 122-67" style="fill:#36a" transform="matrix(.1 0 0 -.1 0 256)"/>
</svg>
